<?xml version="1.0" standalone="no"?>
<!DOCTYPE svg PUBLIC "-//W3C//DTD SVG 20010904//EN"
 "http://www.w3.org/TR/2001/REC-SVG-20010904/DTD/svg10.dtd">
<svg version="1.0" xmlns="http://www.w3.org/2000/svg"
 width="200.000000pt" height="200.000000pt" viewBox="0 0 200.000000 200.000000"
 preserveAspectRatio="xMidYMid meet">

<g transform="translate(0.000000,200.000000) scale(0.100000,-0.100000)"
fill="#000000" stroke="none">
<path d="M185 1258 c-11 -6 -33 -22 -48 -37 -87 -80 -101 -242 -26 -305 45
-38 92 -35 135 8 l34 34 0 -78 c0 -86 -14 -114 -54 -108 -15 2 -20 9 -18 24 2
13 -4 24 -13 28 -17 6 -55 -9 -55 -23 0 -20 44 -44 88 -49 44 -4 53 -1 83 26
l34 30 3 127 c2 70 0 131 -5 135 -4 5 -20 6 -35 3 -22 -4 -27 -12 -33 -51 -7
-47 -49 -102 -79 -102 -46 0 -73 82 -56 169 17 92 61 151 112 151 31 0 38 -23
12 -38 -23 -13 -8 -32 25 -32 52 0 71 55 29 84 -26 18 -103 21 -133 4z"/>
<path d="M1122 1254 c-24 -17 -29 -53 -10 -72 14 -14 47 -15 67 -3 12 8 11 13
-8 28 -20 16 -21 21 -8 31 20 17 46 5 54 -27 4 -14 -5 -91 -19 -173 -23 -137
-23 -148 -8 -148 14 0 21 18 35 98 28 161 23 160 90 13 33 -71 61 -128 63
-126 3 2 33 65 67 141 69 150 63 149 85 14 22 -130 37 -152 108 -152 28 0 43
7 65 32 23 26 31 30 38 19 5 -8 9 -17 9 -21 0 -14 44 -30 82 -30 71 1 155 79
146 134 -4 21 -6 19 -20 -12 -29 -67 -103 -108 -145 -82 -6 4 -16 19 -22 34
-10 25 -8 27 40 38 75 18 112 77 72 112 -62 53 -150 15 -173 -73 -17 -69 -37
-107 -61 -114 -40 -13 -54 19 -84 188 -21 113 -32 157 -42 157 -8 0 -43 -61
-81 -141 l-67 -142 -50 109 c-27 60 -56 119 -64 132 -30 49 -114 68 -159 36z
m748 -182 c0 -24 -41 -62 -66 -62 -21 0 -22 2 -12 30 17 51 78 76 78 32z"/>
<path d="M405 1190 c-4 -7 0 -19 9 -28 13 -13 20 -14 34 -6 9 6 17 17 17 25 0
17 -50 24 -60 9z"/>
<path d="M623 1183 c-24 -5 -30 -20 -57 -152 -18 -88 -39 -123 -69 -119 -27 4
-35 32 -36 131 -1 66 -3 77 -18 77 -10 0 -23 -4 -29 -8 -14 -9 -25 -80 -13
-87 5 -4 9 -28 9 -54 0 -61 24 -94 68 -94 37 0 57 15 82 62 l19 36 1 -78 c0
-89 17 -133 54 -143 75 -18 110 61 56 121 -18 20 -18 21 20 61 l38 41 6 -32
c4 -18 15 -40 26 -50 24 -22 72 -24 96 -4 22 18 53 87 54 117 0 33 -16 19 -24
-20 -14 -69 -62 -102 -86 -59 -5 11 -10 54 -10 95 0 72 1 76 23 76 38 0 67 12
67 27 0 11 -9 13 -45 7 l-45 -6 0 32 c0 25 -3 31 -16 26 -9 -3 -22 -6 -30 -6
-9 0 -14 -11 -14 -34 0 -19 -6 -37 -12 -40 -10 -5 -10 -7 -1 -12 8 -3 11 -16
8 -30 -3 -13 -7 -35 -10 -48 -6 -28 -48 -82 -77 -97 -20 -11 -20 -8 -16 113 3
67 8 131 12 141 5 9 4 16 0 16 -5 -1 -19 -4 -31 -6z m63 -360 c8 -32 -9 -51
-31 -33 -10 8 -15 29 -15 59 l1 46 19 -24 c11 -13 23 -35 26 -48z"/>
</g>
</svg>
